<mxfile host="Electron" agent="Mozilla/5.0 (Windows NT 10.0; Win64; x64) AppleWebKit/537.36 (KHTML, like Gecko) draw.io/24.7.17 Chrome/128.0.6613.36 Electron/32.0.1 Safari/537.36" version="24.7.17">
  <diagram name="PÃ¡gina-1" id="9UEDMvHu6GNNLu21W2ke">
    <mxGraphModel dx="2049" dy="2363" grid="1" gridSize="10" guides="1" tooltips="1" connect="1" arrows="1" fold="1" page="1" pageScale="1" pageWidth="827" pageHeight="1169" math="0" shadow="0">
      <root>
        <mxCell id="0" />
        <mxCell id="1" parent="0" />
        <mxCell id="9QeZXsU7CtdaOQ2hk94F-1" value="&amp;lt;&amp;lt;Component&amp;gt;&amp;gt;&lt;div&gt;&amp;lt;&amp;lt;C4 System&lt;span style=&quot;background-color: initial;&quot;&gt;&amp;gt;&amp;gt;&lt;/span&gt;&lt;/div&gt;&lt;div&gt;&lt;span style=&quot;background-color: initial;&quot;&gt;&lt;b&gt;SARM&lt;/b&gt;&lt;/span&gt;&lt;/div&gt;" style="html=1;dropTarget=0;whiteSpace=wrap;horizontal=1;verticalAlign=top;fillColor=#1ba1e2;fontColor=#ffffff;strokeColor=default;" vertex="1" parent="1">
          <mxGeometry x="131" y="30" width="799" height="540" as="geometry" />
        </mxCell>
        <mxCell id="9QeZXsU7CtdaOQ2hk94F-2" value="" style="shape=module;jettyWidth=8;jettyHeight=4;" vertex="1" parent="9QeZXsU7CtdaOQ2hk94F-1">
          <mxGeometry x="1" width="20" height="20" relative="1" as="geometry">
            <mxPoint x="-27" y="7" as="offset" />
          </mxGeometry>
        </mxCell>
        <mxCell id="9QeZXsU7CtdaOQ2hk94F-4" value="" style="whiteSpace=wrap;html=1;aspect=fixed;fillColor=#1ba1e2;fontColor=#ffffff;strokeColor=default;" vertex="1" parent="1">
          <mxGeometry x="175" y="20" width="20" height="20" as="geometry" />
        </mxCell>
        <mxCell id="9QeZXsU7CtdaOQ2hk94F-7" value="" style="endArrow=none;html=1;rounded=0;exitX=0.5;exitY=0;exitDx=0;exitDy=0;entryX=0.5;entryY=1;entryDx=0;entryDy=0;" edge="1" parent="1" source="9QeZXsU7CtdaOQ2hk94F-10" target="9QeZXsU7CtdaOQ2hk94F-8">
          <mxGeometry width="50" height="50" relative="1" as="geometry">
            <mxPoint x="180" y="30" as="sourcePoint" />
            <mxPoint x="170" y="-150" as="targetPoint" />
          </mxGeometry>
        </mxCell>
        <mxCell id="9QeZXsU7CtdaOQ2hk94F-8" value="" style="ellipse;whiteSpace=wrap;html=1;aspect=fixed;fillColor=#1ba1e2;fontColor=#ffffff;strokeColor=default;" vertex="1" parent="1">
          <mxGeometry x="170" y="-110" width="30" height="30" as="geometry" />
        </mxCell>
        <mxCell id="9QeZXsU7CtdaOQ2hk94F-62" value="" style="whiteSpace=wrap;html=1;aspect=fixed;fillColor=#1ba1e2;fontColor=#ffffff;strokeColor=default;" vertex="1" parent="1">
          <mxGeometry x="815" y="20" width="20" height="20" as="geometry" />
        </mxCell>
        <mxCell id="9QeZXsU7CtdaOQ2hk94F-63" value="Int. API" style="text;html=1;align=center;verticalAlign=middle;whiteSpace=wrap;rounded=0;" vertex="1" parent="1">
          <mxGeometry x="801.75" y="-40" width="50" height="20" as="geometry" />
        </mxCell>
        <mxCell id="9QeZXsU7CtdaOQ2hk94F-65" value="" style="endArrow=none;html=1;rounded=0;entryX=0.5;entryY=1;entryDx=0;entryDy=0;exitX=0.5;exitY=0;exitDx=0;exitDy=0;" edge="1" parent="1" source="9QeZXsU7CtdaOQ2hk94F-62">
          <mxGeometry width="50" height="50" relative="1" as="geometry">
            <mxPoint x="725" as="sourcePoint" />
            <mxPoint x="824.9999999999998" y="-20" as="targetPoint" />
          </mxGeometry>
        </mxCell>
        <mxCell id="9QeZXsU7CtdaOQ2hk94F-68" value="" style="ellipse;whiteSpace=wrap;html=1;aspect=fixed;fillColor=#1ba1e2;fontColor=#ffffff;strokeColor=default;" vertex="1" parent="1">
          <mxGeometry x="810" y="-120" width="30" height="30" as="geometry" />
        </mxCell>
        <mxCell id="9QeZXsU7CtdaOQ2hk94F-70" value="" style="endArrow=none;html=1;rounded=0;entryX=0.5;entryY=1;entryDx=0;entryDy=0;exitX=0.5;exitY=0;exitDx=0;exitDy=0;" edge="1" parent="1" source="9QeZXsU7CtdaOQ2hk94F-4" target="9QeZXsU7CtdaOQ2hk94F-10">
          <mxGeometry width="50" height="50" relative="1" as="geometry">
            <mxPoint x="170" y="20" as="sourcePoint" />
            <mxPoint x="170" y="-40" as="targetPoint" />
          </mxGeometry>
        </mxCell>
        <mxCell id="9QeZXsU7CtdaOQ2hk94F-10" value="UI" style="text;html=1;align=center;verticalAlign=middle;whiteSpace=wrap;rounded=0;" vertex="1" parent="1">
          <mxGeometry x="175" y="-30" width="20" height="20" as="geometry" />
        </mxCell>
        <mxCell id="9QeZXsU7CtdaOQ2hk94F-73" value="" style="endArrow=none;html=1;rounded=0;entryX=0.5;entryY=1;entryDx=0;entryDy=0;exitX=0.5;exitY=0;exitDx=0;exitDy=0;" edge="1" parent="1" target="9QeZXsU7CtdaOQ2hk94F-68">
          <mxGeometry width="50" height="50" relative="1" as="geometry">
            <mxPoint x="824.9999999999998" y="-40" as="sourcePoint" />
            <mxPoint x="835" y="-20" as="targetPoint" />
          </mxGeometry>
        </mxCell>
        <mxCell id="9QeZXsU7CtdaOQ2hk94F-74" value="" style="whiteSpace=wrap;html=1;aspect=fixed;fillColor=#1ba1e2;fontColor=#ffffff;strokeColor=default;" vertex="1" parent="1">
          <mxGeometry x="315" y="20" width="20" height="20" as="geometry" />
        </mxCell>
        <mxCell id="9QeZXsU7CtdaOQ2hk94F-75" value="" style="endArrow=none;html=1;rounded=0;exitX=0.5;exitY=0;exitDx=0;exitDy=0;entryX=0.5;entryY=1;entryDx=0;entryDy=0;" edge="1" source="9QeZXsU7CtdaOQ2hk94F-78" target="9QeZXsU7CtdaOQ2hk94F-76" parent="1">
          <mxGeometry width="50" height="50" relative="1" as="geometry">
            <mxPoint x="320" y="30" as="sourcePoint" />
            <mxPoint x="310" y="-150" as="targetPoint" />
          </mxGeometry>
        </mxCell>
        <mxCell id="9QeZXsU7CtdaOQ2hk94F-76" value="" style="ellipse;whiteSpace=wrap;html=1;aspect=fixed;fillColor=#1ba1e2;fontColor=#ffffff;strokeColor=default;" vertex="1" parent="1">
          <mxGeometry x="310" y="-110" width="30" height="30" as="geometry" />
        </mxCell>
        <mxCell id="9QeZXsU7CtdaOQ2hk94F-77" value="" style="endArrow=none;html=1;rounded=0;entryX=0.5;entryY=1;entryDx=0;entryDy=0;exitX=0.5;exitY=0;exitDx=0;exitDy=0;" edge="1" source="9QeZXsU7CtdaOQ2hk94F-74" target="9QeZXsU7CtdaOQ2hk94F-78" parent="1">
          <mxGeometry width="50" height="50" relative="1" as="geometry">
            <mxPoint x="310" y="20" as="sourcePoint" />
            <mxPoint x="310" y="-40" as="targetPoint" />
          </mxGeometry>
        </mxCell>
        <mxCell id="9QeZXsU7CtdaOQ2hk94F-78" value="3D" style="text;html=1;align=center;verticalAlign=middle;whiteSpace=wrap;rounded=0;" vertex="1" parent="1">
          <mxGeometry x="315" y="-30" width="20" height="20" as="geometry" />
        </mxCell>
        <mxCell id="9QeZXsU7CtdaOQ2hk94F-146" value="" style="whiteSpace=wrap;html=1;aspect=fixed;fillColor=#1ba1e2;fontColor=#ffffff;strokeColor=default;" vertex="1" parent="1">
          <mxGeometry x="759.25" y="20" width="20" height="20" as="geometry" />
        </mxCell>
        <mxCell id="9QeZXsU7CtdaOQ2hk94F-149" value="" style="endArrow=none;html=1;rounded=0;entryX=0.5;entryY=1;entryDx=0;entryDy=0;exitX=0.5;exitY=0;exitDx=0;exitDy=0;" edge="1" source="9QeZXsU7CtdaOQ2hk94F-146" parent="1">
          <mxGeometry width="50" height="50" relative="1" as="geometry">
            <mxPoint x="751" y="10" as="sourcePoint" />
            <mxPoint x="769.25" y="-20" as="targetPoint" />
          </mxGeometry>
        </mxCell>
        <mxCell id="9QeZXsU7CtdaOQ2hk94F-150" value="Google API" style="text;html=1;align=center;verticalAlign=middle;whiteSpace=wrap;rounded=0;" vertex="1" parent="1">
          <mxGeometry x="736.75" y="-40" width="65" height="20" as="geometry" />
        </mxCell>
        <mxCell id="9QeZXsU7CtdaOQ2hk94F-152" value="" style="rounded=0;orthogonalLoop=1;jettySize=auto;html=1;endArrow=halfCircle;endFill=0;endSize=6;strokeWidth=1;sketch=0;fontSize=12;curved=1;exitX=0.5;exitY=0;exitDx=0;exitDy=0;" edge="1" parent="1">
          <mxGeometry relative="1" as="geometry">
            <mxPoint x="768.83" y="-40" as="sourcePoint" />
            <mxPoint x="768.83" y="-110" as="targetPoint" />
          </mxGeometry>
        </mxCell>
        <mxCell id="9QeZXsU7CtdaOQ2hk94F-156" value="&amp;lt;&amp;lt;Component&amp;gt;&amp;gt;&lt;div&gt;&amp;lt;&amp;lt;C4 Container&lt;span style=&quot;background-color: initial;&quot;&gt;&amp;gt;&amp;gt;&lt;/span&gt;&lt;/div&gt;&lt;div&gt;&lt;b&gt;SPA&lt;/b&gt;&lt;/div&gt;" style="html=1;dropTarget=0;whiteSpace=wrap;horizontal=1;verticalAlign=top;fillColor=#1ba1e2;fontColor=#ffffff;strokeColor=default;" vertex="1" parent="1">
          <mxGeometry x="140" y="160" width="150" height="90" as="geometry" />
        </mxCell>
        <mxCell id="9QeZXsU7CtdaOQ2hk94F-157" value="" style="shape=module;jettyWidth=8;jettyHeight=4;" vertex="1" parent="9QeZXsU7CtdaOQ2hk94F-156">
          <mxGeometry x="1" width="20" height="20" relative="1" as="geometry">
            <mxPoint x="-27" y="7" as="offset" />
          </mxGeometry>
        </mxCell>
        <mxCell id="9QeZXsU7CtdaOQ2hk94F-158" value="" style="endArrow=none;html=1;rounded=0;exitX=0.5;exitY=1;exitDx=0;exitDy=0;entryX=0.317;entryY=-0.038;entryDx=0;entryDy=0;entryPerimeter=0;" edge="1" parent="1" source="9QeZXsU7CtdaOQ2hk94F-159" target="9QeZXsU7CtdaOQ2hk94F-156">
          <mxGeometry width="50" height="50" relative="1" as="geometry">
            <mxPoint x="195" y="-20" as="sourcePoint" />
            <mxPoint x="195" y="-70" as="targetPoint" />
          </mxGeometry>
        </mxCell>
        <mxCell id="9QeZXsU7CtdaOQ2hk94F-160" value="" style="endArrow=none;html=1;rounded=0;exitX=0.5;exitY=1;exitDx=0;exitDy=0;" edge="1" parent="1" source="9QeZXsU7CtdaOQ2hk94F-4">
          <mxGeometry width="50" height="50" relative="1" as="geometry">
            <mxPoint x="185" y="40" as="sourcePoint" />
            <mxPoint x="185" y="150" as="targetPoint" />
          </mxGeometry>
        </mxCell>
        <mxCell id="9QeZXsU7CtdaOQ2hk94F-159" value="" style="whiteSpace=wrap;html=1;aspect=fixed;fillColor=#1ba1e2;fontColor=#ffffff;strokeColor=default;" vertex="1" parent="1">
          <mxGeometry x="175" y="150" width="20" height="20" as="geometry" />
        </mxCell>
        <mxCell id="9QeZXsU7CtdaOQ2hk94F-161" value="&amp;lt;&amp;lt;Component&amp;gt;&amp;gt;&lt;div&gt;&amp;lt;&amp;lt;C4 Container&lt;span style=&quot;background-color: initial;&quot;&gt;&amp;gt;&amp;gt;&lt;/span&gt;&lt;/div&gt;&lt;div&gt;&lt;b&gt;3D Visualization&lt;/b&gt;&lt;br&gt;&lt;/div&gt;" style="html=1;dropTarget=0;whiteSpace=wrap;horizontal=1;verticalAlign=top;fillColor=#1ba1e2;fontColor=#ffffff;strokeColor=default;" vertex="1" parent="1">
          <mxGeometry x="254" y="425" width="150" height="80" as="geometry" />
        </mxCell>
        <mxCell id="9QeZXsU7CtdaOQ2hk94F-162" value="" style="shape=module;jettyWidth=8;jettyHeight=4;" vertex="1" parent="9QeZXsU7CtdaOQ2hk94F-161">
          <mxGeometry x="1" width="20" height="20" relative="1" as="geometry">
            <mxPoint x="-27" y="7" as="offset" />
          </mxGeometry>
        </mxCell>
        <mxCell id="9QeZXsU7CtdaOQ2hk94F-163" value="" style="endArrow=none;html=1;rounded=0;exitX=0.5;exitY=1;exitDx=0;exitDy=0;entryX=0.5;entryY=0;entryDx=0;entryDy=0;" edge="1" parent="1" source="9QeZXsU7CtdaOQ2hk94F-74" target="9QeZXsU7CtdaOQ2hk94F-164">
          <mxGeometry width="50" height="50" relative="1" as="geometry">
            <mxPoint x="195" y="50" as="sourcePoint" />
            <mxPoint x="195" y="160" as="targetPoint" />
          </mxGeometry>
        </mxCell>
        <mxCell id="9QeZXsU7CtdaOQ2hk94F-164" value="" style="whiteSpace=wrap;html=1;aspect=fixed;fillColor=#1ba1e2;fontColor=#ffffff;strokeColor=default;" vertex="1" parent="1">
          <mxGeometry x="315" y="410" width="20" height="20" as="geometry" />
        </mxCell>
        <mxCell id="9QeZXsU7CtdaOQ2hk94F-165" value="" style="shape=providedRequiredInterface;html=1;verticalLabelPosition=bottom;sketch=0;fillColor=#1ba1e2;fontColor=#ffffff;strokeColor=default;rotation=-139;" vertex="1" parent="1">
          <mxGeometry x="200" y="310" width="20" height="20" as="geometry" />
        </mxCell>
        <mxCell id="9QeZXsU7CtdaOQ2hk94F-166" value="3D API" style="text;html=1;align=center;verticalAlign=middle;whiteSpace=wrap;rounded=0;" vertex="1" parent="1">
          <mxGeometry x="162.5" y="330" width="45" height="20" as="geometry" />
        </mxCell>
        <mxCell id="9QeZXsU7CtdaOQ2hk94F-167" value="" style="endArrow=none;html=1;rounded=0;exitX=0.289;exitY=0.97;exitDx=0;exitDy=0;entryX=1;entryY=0.5;entryDx=0;entryDy=0;exitPerimeter=0;entryPerimeter=0;" edge="1" parent="1" source="9QeZXsU7CtdaOQ2hk94F-156" target="9QeZXsU7CtdaOQ2hk94F-165">
          <mxGeometry width="50" height="50" relative="1" as="geometry">
            <mxPoint x="335" y="50" as="sourcePoint" />
            <mxPoint x="335" y="350" as="targetPoint" />
          </mxGeometry>
        </mxCell>
        <mxCell id="9QeZXsU7CtdaOQ2hk94F-168" value="" style="endArrow=none;html=1;rounded=0;entryX=0;entryY=0.5;entryDx=0;entryDy=0;entryPerimeter=0;exitX=0;exitY=0.5;exitDx=0;exitDy=0;" edge="1" parent="1" source="9QeZXsU7CtdaOQ2hk94F-170" target="9QeZXsU7CtdaOQ2hk94F-165">
          <mxGeometry width="50" height="50" relative="1" as="geometry">
            <mxPoint x="193" y="257" as="sourcePoint" />
            <mxPoint x="196" y="300" as="targetPoint" />
          </mxGeometry>
        </mxCell>
        <mxCell id="9QeZXsU7CtdaOQ2hk94F-169" value="" style="whiteSpace=wrap;html=1;aspect=fixed;fillColor=#1ba1e2;fontColor=#ffffff;strokeColor=default;" vertex="1" parent="1">
          <mxGeometry x="175" y="240" width="20" height="20" as="geometry" />
        </mxCell>
        <mxCell id="9QeZXsU7CtdaOQ2hk94F-170" value="" style="whiteSpace=wrap;html=1;aspect=fixed;fillColor=#1ba1e2;fontColor=#ffffff;strokeColor=default;" vertex="1" parent="1">
          <mxGeometry x="240" y="455" width="20" height="20" as="geometry" />
        </mxCell>
        <mxCell id="9QeZXsU7CtdaOQ2hk94F-174" value="&amp;lt;&amp;lt;Component&amp;gt;&amp;gt;&lt;div&gt;&amp;lt;&amp;lt;C4 Container&lt;span style=&quot;background-color: initial;&quot;&gt;&amp;gt;&amp;gt;&lt;/span&gt;&lt;/div&gt;&lt;div&gt;&lt;b&gt;Backoffice&lt;/b&gt;&lt;/div&gt;" style="html=1;dropTarget=0;whiteSpace=wrap;horizontal=1;verticalAlign=top;fillColor=#1ba1e2;fontColor=#ffffff;strokeColor=default;" vertex="1" parent="1">
          <mxGeometry x="750" y="105" width="150" height="90" as="geometry" />
        </mxCell>
        <mxCell id="9QeZXsU7CtdaOQ2hk94F-175" value="" style="shape=module;jettyWidth=8;jettyHeight=4;" vertex="1" parent="9QeZXsU7CtdaOQ2hk94F-174">
          <mxGeometry x="1" width="20" height="20" relative="1" as="geometry">
            <mxPoint x="-27" y="7" as="offset" />
          </mxGeometry>
        </mxCell>
        <mxCell id="9QeZXsU7CtdaOQ2hk94F-176" value="" style="endArrow=none;html=1;rounded=0;exitX=1;exitY=0.75;exitDx=0;exitDy=0;entryX=0.907;entryY=0.152;entryDx=0;entryDy=0;entryPerimeter=0;" edge="1" parent="1" source="9QeZXsU7CtdaOQ2hk94F-177" target="9QeZXsU7CtdaOQ2hk94F-178">
          <mxGeometry width="50" height="50" relative="1" as="geometry">
            <mxPoint x="193" y="257" as="sourcePoint" />
            <mxPoint x="430" y="260" as="targetPoint" />
            <Array as="points">
              <mxPoint x="580" y="370" />
            </Array>
          </mxGeometry>
        </mxCell>
        <mxCell id="9QeZXsU7CtdaOQ2hk94F-177" value="" style="whiteSpace=wrap;html=1;aspect=fixed;fillColor=#1ba1e2;fontColor=#ffffff;strokeColor=default;" vertex="1" parent="1">
          <mxGeometry x="394" y="455" width="20" height="20" as="geometry" />
        </mxCell>
        <mxCell id="9QeZXsU7CtdaOQ2hk94F-178" value="" style="shape=providedRequiredInterface;html=1;verticalLabelPosition=bottom;sketch=0;fillColor=#1ba1e2;fontColor=#ffffff;strokeColor=default;rotation=135;" vertex="1" parent="1">
          <mxGeometry x="590" y="160" width="20" height="20" as="geometry" />
        </mxCell>
        <mxCell id="9QeZXsU7CtdaOQ2hk94F-181" value="Backoffice API" style="text;html=1;align=center;verticalAlign=middle;whiteSpace=wrap;rounded=0;" vertex="1" parent="1">
          <mxGeometry x="520" y="130" width="90" height="20" as="geometry" />
        </mxCell>
        <mxCell id="9QeZXsU7CtdaOQ2hk94F-183" value="" style="whiteSpace=wrap;html=1;aspect=fixed;fillColor=#1ba1e2;fontColor=#ffffff;strokeColor=default;" vertex="1" parent="1">
          <mxGeometry x="759.25" y="90" width="20" height="20" as="geometry" />
        </mxCell>
        <mxCell id="9QeZXsU7CtdaOQ2hk94F-184" value="" style="whiteSpace=wrap;html=1;aspect=fixed;fillColor=#1ba1e2;fontColor=#ffffff;strokeColor=default;" vertex="1" parent="1">
          <mxGeometry x="815" y="90" width="20" height="20" as="geometry" />
        </mxCell>
        <mxCell id="9QeZXsU7CtdaOQ2hk94F-186" value="" style="endArrow=none;html=1;rounded=0;entryX=0.5;entryY=1;entryDx=0;entryDy=0;exitX=0.5;exitY=0;exitDx=0;exitDy=0;" edge="1" parent="1" source="9QeZXsU7CtdaOQ2hk94F-183" target="9QeZXsU7CtdaOQ2hk94F-146">
          <mxGeometry width="50" height="50" relative="1" as="geometry">
            <mxPoint x="811.5" y="20" as="sourcePoint" />
            <mxPoint x="811.5" y="-10" as="targetPoint" />
          </mxGeometry>
        </mxCell>
        <mxCell id="9QeZXsU7CtdaOQ2hk94F-187" value="" style="endArrow=none;html=1;rounded=0;entryX=0.5;entryY=1;entryDx=0;entryDy=0;exitX=0.5;exitY=0;exitDx=0;exitDy=0;" edge="1" parent="1" source="9QeZXsU7CtdaOQ2hk94F-184" target="9QeZXsU7CtdaOQ2hk94F-62">
          <mxGeometry width="50" height="50" relative="1" as="geometry">
            <mxPoint x="802.25" y="100" as="sourcePoint" />
            <mxPoint x="802.25" y="40" as="targetPoint" />
          </mxGeometry>
        </mxCell>
        <mxCell id="9QeZXsU7CtdaOQ2hk94F-189" value="" style="endArrow=none;html=1;rounded=0;exitX=0;exitY=0.5;exitDx=0;exitDy=0;entryX=0;entryY=0.5;entryDx=0;entryDy=0;entryPerimeter=0;" edge="1" parent="1" source="9QeZXsU7CtdaOQ2hk94F-190" target="9QeZXsU7CtdaOQ2hk94F-178">
          <mxGeometry width="50" height="50" relative="1" as="geometry">
            <mxPoint x="434" y="405" as="sourcePoint" />
            <mxPoint x="443" y="272" as="targetPoint" />
          </mxGeometry>
        </mxCell>
        <mxCell id="9QeZXsU7CtdaOQ2hk94F-190" value="" style="whiteSpace=wrap;html=1;aspect=fixed;fillColor=#1ba1e2;fontColor=#ffffff;strokeColor=default;" vertex="1" parent="1">
          <mxGeometry x="739.25" y="120" width="20" height="20" as="geometry" />
        </mxCell>
        <mxCell id="9QeZXsU7CtdaOQ2hk94F-192" value="" style="endArrow=none;html=1;rounded=0;entryX=0.936;entryY=1.007;entryDx=0;entryDy=0;exitX=1;exitY=0.25;exitDx=0;exitDy=0;entryPerimeter=0;" edge="1" parent="1" source="9QeZXsU7CtdaOQ2hk94F-193" target="9QeZXsU7CtdaOQ2hk94F-178">
          <mxGeometry width="50" height="50" relative="1" as="geometry">
            <mxPoint x="335" y="50" as="sourcePoint" />
            <mxPoint x="335" y="350" as="targetPoint" />
          </mxGeometry>
        </mxCell>
        <mxCell id="9QeZXsU7CtdaOQ2hk94F-193" value="" style="whiteSpace=wrap;html=1;aspect=fixed;fillColor=#1ba1e2;fontColor=#ffffff;strokeColor=default;" vertex="1" parent="1">
          <mxGeometry x="280" y="175" width="20" height="20" as="geometry" />
        </mxCell>
        <mxCell id="9QeZXsU7CtdaOQ2hk94F-194" value="&amp;lt;&amp;lt;Component&amp;gt;&amp;gt;&lt;div&gt;&amp;lt;&amp;lt;C4 Container&lt;span style=&quot;background-color: initial;&quot;&gt;&amp;gt;&amp;gt;&lt;/span&gt;&lt;/div&gt;&lt;div&gt;&lt;b&gt;GDPR&lt;/b&gt;&lt;/div&gt;" style="html=1;dropTarget=0;whiteSpace=wrap;horizontal=1;verticalAlign=top;fillColor=#1ba1e2;fontColor=#ffffff;strokeColor=default;" vertex="1" parent="1">
          <mxGeometry x="599.25" y="380" width="140" height="110" as="geometry" />
        </mxCell>
        <mxCell id="9QeZXsU7CtdaOQ2hk94F-195" value="" style="shape=module;jettyWidth=8;jettyHeight=4;" vertex="1" parent="9QeZXsU7CtdaOQ2hk94F-194">
          <mxGeometry x="1" width="20" height="20" relative="1" as="geometry">
            <mxPoint x="-27" y="7" as="offset" />
          </mxGeometry>
        </mxCell>
        <mxCell id="9QeZXsU7CtdaOQ2hk94F-196" value="&amp;lt;&amp;lt;Component&amp;gt;&amp;gt;&lt;div&gt;&amp;lt;&amp;lt;C4 Container&lt;span style=&quot;background-color: initial;&quot;&gt;&amp;gt;&amp;gt;&lt;/span&gt;&lt;/div&gt;&lt;div&gt;&lt;b&gt;BCP&lt;/b&gt;&lt;/div&gt;" style="html=1;dropTarget=0;whiteSpace=wrap;horizontal=1;verticalAlign=top;fillColor=#1ba1e2;fontColor=#ffffff;strokeColor=default;" vertex="1" parent="1">
          <mxGeometry x="781.75" y="410" width="130" height="110" as="geometry" />
        </mxCell>
        <mxCell id="9QeZXsU7CtdaOQ2hk94F-197" value="" style="shape=module;jettyWidth=8;jettyHeight=4;" vertex="1" parent="9QeZXsU7CtdaOQ2hk94F-196">
          <mxGeometry x="1" width="20" height="20" relative="1" as="geometry">
            <mxPoint x="-27" y="7" as="offset" />
          </mxGeometry>
        </mxCell>
        <mxCell id="9QeZXsU7CtdaOQ2hk94F-200" value="&amp;lt;&amp;lt;Component&amp;gt;&amp;gt;&lt;div&gt;&amp;lt;&amp;lt;C4 Container&lt;span style=&quot;background-color: initial;&quot;&gt;&amp;gt;&amp;gt;&lt;/span&gt;&lt;/div&gt;&lt;div&gt;&lt;b&gt;Planning&lt;/b&gt;&lt;/div&gt;" style="html=1;dropTarget=0;whiteSpace=wrap;horizontal=1;verticalAlign=top;fillColor=#1ba1e2;fontColor=#ffffff;strokeColor=default;" vertex="1" parent="1">
          <mxGeometry x="404" y="265" width="140" height="110" as="geometry" />
        </mxCell>
        <mxCell id="9QeZXsU7CtdaOQ2hk94F-201" value="" style="shape=module;jettyWidth=8;jettyHeight=4;" vertex="1" parent="9QeZXsU7CtdaOQ2hk94F-200">
          <mxGeometry x="1" width="20" height="20" relative="1" as="geometry">
            <mxPoint x="-27" y="7" as="offset" />
          </mxGeometry>
        </mxCell>
        <mxCell id="9QeZXsU7CtdaOQ2hk94F-203" value="" style="endArrow=none;html=1;rounded=0;entryX=0.89;entryY=0.16;entryDx=0;entryDy=0;exitX=1;exitY=0.5;exitDx=0;exitDy=0;entryPerimeter=0;" edge="1" parent="1" source="9QeZXsU7CtdaOQ2hk94F-204" target="9QeZXsU7CtdaOQ2hk94F-205">
          <mxGeometry width="50" height="50" relative="1" as="geometry">
            <mxPoint x="310" y="210" as="sourcePoint" />
            <mxPoint x="597" y="214" as="targetPoint" />
          </mxGeometry>
        </mxCell>
        <mxCell id="9QeZXsU7CtdaOQ2hk94F-204" value="" style="whiteSpace=wrap;html=1;aspect=fixed;fillColor=#1ba1e2;fontColor=#ffffff;strokeColor=default;" vertex="1" parent="1">
          <mxGeometry x="280" y="220" width="20" height="20" as="geometry" />
        </mxCell>
        <mxCell id="9QeZXsU7CtdaOQ2hk94F-205" value="" style="shape=providedRequiredInterface;html=1;verticalLabelPosition=bottom;sketch=0;fillColor=#1ba1e2;fontColor=#ffffff;strokeColor=default;rotation=-90;" vertex="1" parent="1">
          <mxGeometry x="450" y="220" width="20" height="20" as="geometry" />
        </mxCell>
        <mxCell id="9QeZXsU7CtdaOQ2hk94F-207" value="Planning API" style="text;html=1;align=center;verticalAlign=middle;whiteSpace=wrap;rounded=0;" vertex="1" parent="1">
          <mxGeometry x="359" y="230" width="90" height="20" as="geometry" />
        </mxCell>
        <mxCell id="9QeZXsU7CtdaOQ2hk94F-208" value="" style="endArrow=none;html=1;rounded=0;entryX=0.423;entryY=0.007;entryDx=0;entryDy=0;exitX=0;exitY=0.5;exitDx=0;exitDy=0;entryPerimeter=0;exitPerimeter=0;" edge="1" parent="1" source="9QeZXsU7CtdaOQ2hk94F-225" target="9QeZXsU7CtdaOQ2hk94F-200">
          <mxGeometry width="50" height="50" relative="1" as="geometry">
            <mxPoint x="310" y="240" as="sourcePoint" />
            <mxPoint x="463" y="232" as="targetPoint" />
          </mxGeometry>
        </mxCell>
        <mxCell id="9QeZXsU7CtdaOQ2hk94F-209" value="" style="endArrow=none;html=1;rounded=0;entryX=0;entryY=0.5;entryDx=0;entryDy=0;exitX=0.852;exitY=1.05;exitDx=0;exitDy=0;exitPerimeter=0;" edge="1" parent="1" source="9QeZXsU7CtdaOQ2hk94F-205" target="9QeZXsU7CtdaOQ2hk94F-210">
          <mxGeometry width="50" height="50" relative="1" as="geometry">
            <mxPoint x="310" y="190" as="sourcePoint" />
            <mxPoint x="597" y="179" as="targetPoint" />
          </mxGeometry>
        </mxCell>
        <mxCell id="9QeZXsU7CtdaOQ2hk94F-210" value="" style="whiteSpace=wrap;html=1;aspect=fixed;fillColor=#1ba1e2;fontColor=#ffffff;strokeColor=default;" vertex="1" parent="1">
          <mxGeometry x="739.25" y="160" width="20" height="20" as="geometry" />
        </mxCell>
        <mxCell id="9QeZXsU7CtdaOQ2hk94F-211" value="" style="shape=providedRequiredInterface;html=1;verticalLabelPosition=bottom;sketch=0;fillColor=#1ba1e2;fontColor=#ffffff;strokeColor=default;rotation=-90;" vertex="1" parent="1">
          <mxGeometry x="659.25" y="290" width="20" height="20" as="geometry" />
        </mxCell>
        <mxCell id="9QeZXsU7CtdaOQ2hk94F-212" value="" style="shape=providedRequiredInterface;html=1;verticalLabelPosition=bottom;sketch=0;fillColor=#1ba1e2;fontColor=#ffffff;strokeColor=default;rotation=-90;" vertex="1" parent="1">
          <mxGeometry x="836.75" y="330" width="20" height="20" as="geometry" />
        </mxCell>
        <mxCell id="9QeZXsU7CtdaOQ2hk94F-213" value="GDPR API" style="text;html=1;align=center;verticalAlign=middle;whiteSpace=wrap;rounded=0;" vertex="1" parent="1">
          <mxGeometry x="590" y="270" width="90" height="20" as="geometry" />
        </mxCell>
        <mxCell id="9QeZXsU7CtdaOQ2hk94F-215" value="" style="endArrow=none;html=1;rounded=0;entryX=0.5;entryY=1;entryDx=0;entryDy=0;exitX=0.898;exitY=1.033;exitDx=0;exitDy=0;exitPerimeter=0;" edge="1" parent="1" source="9QeZXsU7CtdaOQ2hk94F-213" target="9QeZXsU7CtdaOQ2hk94F-221">
          <mxGeometry width="50" height="50" relative="1" as="geometry">
            <mxPoint x="481" y="233" as="sourcePoint" />
            <mxPoint x="749" y="180" as="targetPoint" />
          </mxGeometry>
        </mxCell>
        <mxCell id="9QeZXsU7CtdaOQ2hk94F-216" value="" style="endArrow=none;html=1;rounded=0;entryX=0;entryY=0.5;entryDx=0;entryDy=0;exitX=0.5;exitY=0;exitDx=0;exitDy=0;entryPerimeter=0;" edge="1" parent="1" source="9QeZXsU7CtdaOQ2hk94F-227" target="9QeZXsU7CtdaOQ2hk94F-211">
          <mxGeometry width="50" height="50" relative="1" as="geometry">
            <mxPoint x="681" y="301" as="sourcePoint" />
            <mxPoint x="759" y="190" as="targetPoint" />
          </mxGeometry>
        </mxCell>
        <mxCell id="9QeZXsU7CtdaOQ2hk94F-217" value="BCP API" style="text;html=1;align=center;verticalAlign=middle;whiteSpace=wrap;rounded=0;" vertex="1" parent="1">
          <mxGeometry x="766.75" y="310" width="90" height="20" as="geometry" />
        </mxCell>
        <mxCell id="9QeZXsU7CtdaOQ2hk94F-221" value="" style="whiteSpace=wrap;html=1;aspect=fixed;fillColor=#1ba1e2;fontColor=#ffffff;strokeColor=default;" vertex="1" parent="1">
          <mxGeometry x="781.75" y="180" width="20" height="20" as="geometry" />
        </mxCell>
        <mxCell id="9QeZXsU7CtdaOQ2hk94F-222" value="" style="whiteSpace=wrap;html=1;aspect=fixed;fillColor=#1ba1e2;fontColor=#ffffff;strokeColor=default;" vertex="1" parent="1">
          <mxGeometry x="845.75" y="180" width="20" height="20" as="geometry" />
        </mxCell>
        <mxCell id="9QeZXsU7CtdaOQ2hk94F-223" value="" style="endArrow=none;html=1;rounded=0;entryX=0.5;entryY=1;entryDx=0;entryDy=0;exitX=1;exitY=0.5;exitDx=0;exitDy=0;exitPerimeter=0;" edge="1" parent="1" source="9QeZXsU7CtdaOQ2hk94F-212" target="9QeZXsU7CtdaOQ2hk94F-222">
          <mxGeometry width="50" height="50" relative="1" as="geometry">
            <mxPoint x="681" y="301" as="sourcePoint" />
            <mxPoint x="802" y="210" as="targetPoint" />
          </mxGeometry>
        </mxCell>
        <mxCell id="9QeZXsU7CtdaOQ2hk94F-224" value="" style="endArrow=none;html=1;rounded=0;entryX=0;entryY=0.5;entryDx=0;entryDy=0;exitX=0.5;exitY=0;exitDx=0;exitDy=0;entryPerimeter=0;" edge="1" parent="1" source="9QeZXsU7CtdaOQ2hk94F-196" target="9QeZXsU7CtdaOQ2hk94F-212">
          <mxGeometry width="50" height="50" relative="1" as="geometry">
            <mxPoint x="857" y="340" as="sourcePoint" />
            <mxPoint x="866" y="210" as="targetPoint" />
          </mxGeometry>
        </mxCell>
        <mxCell id="9QeZXsU7CtdaOQ2hk94F-226" value="" style="endArrow=none;html=1;rounded=0;entryX=0.423;entryY=0.007;entryDx=0;entryDy=0;exitX=0;exitY=0.5;exitDx=0;exitDy=0;entryPerimeter=0;exitPerimeter=0;" edge="1" parent="1" source="9QeZXsU7CtdaOQ2hk94F-205" target="9QeZXsU7CtdaOQ2hk94F-225">
          <mxGeometry width="50" height="50" relative="1" as="geometry">
            <mxPoint x="460" y="240" as="sourcePoint" />
            <mxPoint x="463" y="266" as="targetPoint" />
          </mxGeometry>
        </mxCell>
        <mxCell id="9QeZXsU7CtdaOQ2hk94F-225" value="" style="whiteSpace=wrap;html=1;aspect=fixed;fillColor=#1ba1e2;fontColor=#ffffff;strokeColor=default;" vertex="1" parent="1">
          <mxGeometry x="450" y="250" width="20" height="20" as="geometry" />
        </mxCell>
        <mxCell id="9QeZXsU7CtdaOQ2hk94F-228" value="" style="endArrow=none;html=1;rounded=0;entryX=0;entryY=0.5;entryDx=0;entryDy=0;exitX=0.5;exitY=0;exitDx=0;exitDy=0;entryPerimeter=0;" edge="1" parent="1" source="9QeZXsU7CtdaOQ2hk94F-194" target="9QeZXsU7CtdaOQ2hk94F-227">
          <mxGeometry width="50" height="50" relative="1" as="geometry">
            <mxPoint x="669" y="380" as="sourcePoint" />
            <mxPoint x="669" y="310" as="targetPoint" />
          </mxGeometry>
        </mxCell>
        <mxCell id="9QeZXsU7CtdaOQ2hk94F-227" value="" style="whiteSpace=wrap;html=1;aspect=fixed;fillColor=#1ba1e2;fontColor=#ffffff;strokeColor=default;" vertex="1" parent="1">
          <mxGeometry x="659.25" y="370" width="20" height="20" as="geometry" />
        </mxCell>
        <mxCell id="9QeZXsU7CtdaOQ2hk94F-229" value="" style="whiteSpace=wrap;html=1;aspect=fixed;fillColor=#1ba1e2;fontColor=#ffffff;strokeColor=default;" vertex="1" parent="1">
          <mxGeometry x="836.75" y="400" width="20" height="20" as="geometry" />
        </mxCell>
        <mxCell id="9QeZXsU7CtdaOQ2hk94F-232" value="" style="whiteSpace=wrap;html=1;aspect=fixed;fillColor=#1ba1e2;fontColor=#ffffff;strokeColor=default;" vertex="1" parent="1">
          <mxGeometry x="865" y="20" width="20" height="20" as="geometry" />
        </mxCell>
        <mxCell id="9QeZXsU7CtdaOQ2hk94F-233" value="" style="endArrow=none;html=1;rounded=0;entryX=0.5;entryY=1;entryDx=0;entryDy=0;exitX=0.5;exitY=0;exitDx=0;exitDy=0;" edge="1" parent="1" source="9QeZXsU7CtdaOQ2hk94F-232">
          <mxGeometry width="50" height="50" relative="1" as="geometry">
            <mxPoint x="775" as="sourcePoint" />
            <mxPoint x="874.9999999999998" y="-20" as="targetPoint" />
          </mxGeometry>
        </mxCell>
        <mxCell id="9QeZXsU7CtdaOQ2hk94F-234" value="" style="ellipse;whiteSpace=wrap;html=1;aspect=fixed;fillColor=#1ba1e2;fontColor=#ffffff;strokeColor=default;" vertex="1" parent="1">
          <mxGeometry x="860" y="-120" width="30" height="30" as="geometry" />
        </mxCell>
        <mxCell id="9QeZXsU7CtdaOQ2hk94F-235" value="" style="endArrow=none;html=1;rounded=0;entryX=0.5;entryY=1;entryDx=0;entryDy=0;exitX=0.5;exitY=0;exitDx=0;exitDy=0;" edge="1" parent="1" target="9QeZXsU7CtdaOQ2hk94F-234">
          <mxGeometry width="50" height="50" relative="1" as="geometry">
            <mxPoint x="874.9999999999998" y="-40" as="sourcePoint" />
            <mxPoint x="885" y="-20" as="targetPoint" />
          </mxGeometry>
        </mxCell>
        <mxCell id="9QeZXsU7CtdaOQ2hk94F-236" value="" style="whiteSpace=wrap;html=1;aspect=fixed;fillColor=#1ba1e2;fontColor=#ffffff;strokeColor=default;" vertex="1" parent="1">
          <mxGeometry x="865" y="90" width="20" height="20" as="geometry" />
        </mxCell>
        <mxCell id="9QeZXsU7CtdaOQ2hk94F-237" value="" style="endArrow=none;html=1;rounded=0;entryX=0.5;entryY=1;entryDx=0;entryDy=0;exitX=0.5;exitY=0;exitDx=0;exitDy=0;" edge="1" parent="1" source="9QeZXsU7CtdaOQ2hk94F-236" target="9QeZXsU7CtdaOQ2hk94F-232">
          <mxGeometry width="50" height="50" relative="1" as="geometry">
            <mxPoint x="852.25" y="100" as="sourcePoint" />
            <mxPoint x="852.25" y="40" as="targetPoint" />
          </mxGeometry>
        </mxCell>
        <mxCell id="9QeZXsU7CtdaOQ2hk94F-238" value="Ext. API" style="text;html=1;align=center;verticalAlign=middle;whiteSpace=wrap;rounded=0;" vertex="1" parent="1">
          <mxGeometry x="851.75" y="-40" width="50" height="20" as="geometry" />
        </mxCell>
        <mxCell id="9QeZXsU7CtdaOQ2hk94F-239" value="&amp;lt;&amp;lt;Component&amp;gt;&amp;gt;&lt;div&gt;&amp;lt;&amp;lt;C4 System&amp;gt;&amp;gt;&lt;/div&gt;&lt;div style=&quot;padding-right: 0px;&quot;&gt;&lt;b&gt;SARM&lt;/b&gt;&lt;/div&gt;" style="html=1;dropTarget=0;whiteSpace=wrap;horizontal=1;verticalAlign=top;fillColor=#1ba1e2;fontColor=#ffffff;strokeColor=default;" vertex="1" parent="1">
          <mxGeometry x="1170" y="90" width="786" height="480" as="geometry" />
        </mxCell>
        <mxCell id="9QeZXsU7CtdaOQ2hk94F-240" value="" style="shape=module;jettyWidth=8;jettyHeight=4;" vertex="1" parent="9QeZXsU7CtdaOQ2hk94F-239">
          <mxGeometry x="1" width="20" height="20" relative="1" as="geometry">
            <mxPoint x="-27" y="7" as="offset" />
          </mxGeometry>
        </mxCell>
        <mxCell id="9QeZXsU7CtdaOQ2hk94F-241" value="&amp;lt;&amp;lt;Component&amp;gt;&amp;gt;&lt;div&gt;&amp;lt;&amp;lt;C4 Container&lt;span style=&quot;background-color: initial;&quot;&gt;&amp;gt;&amp;gt;&lt;/span&gt;&lt;/div&gt;&lt;div style=&quot;padding-right: 0px;&quot;&gt;&lt;b&gt;SPA&lt;/b&gt;&lt;/div&gt;" style="html=1;dropTarget=0;whiteSpace=wrap;horizontal=1;verticalAlign=top;fillColor=#1ba1e2;fontColor=#ffffff;strokeColor=default;" vertex="1" parent="1">
          <mxGeometry x="1196" y="200" width="180" height="100" as="geometry" />
        </mxCell>
        <mxCell id="9QeZXsU7CtdaOQ2hk94F-242" value="" style="shape=module;jettyWidth=8;jettyHeight=4;" vertex="1" parent="9QeZXsU7CtdaOQ2hk94F-241">
          <mxGeometry x="1" width="20" height="20" relative="1" as="geometry">
            <mxPoint x="-27" y="7" as="offset" />
          </mxGeometry>
        </mxCell>
        <mxCell id="9QeZXsU7CtdaOQ2hk94F-243" value="" style="whiteSpace=wrap;html=1;aspect=fixed;fillColor=#1ba1e2;fontColor=#ffffff;strokeColor=default;" vertex="1" parent="1">
          <mxGeometry x="1236" y="80" width="20" height="20" as="geometry" />
        </mxCell>
        <mxCell id="9QeZXsU7CtdaOQ2hk94F-244" value="" style="whiteSpace=wrap;html=1;aspect=fixed;fillColor=#1ba1e2;fontColor=#ffffff;strokeColor=default;" vertex="1" parent="1">
          <mxGeometry x="1236" y="190" width="20" height="20" as="geometry" />
        </mxCell>
        <mxCell id="9QeZXsU7CtdaOQ2hk94F-245" value="" style="whiteSpace=wrap;html=1;aspect=fixed;fillColor=#1ba1e2;fontColor=#ffffff;strokeColor=default;" vertex="1" parent="1">
          <mxGeometry x="1320" y="190" width="20" height="20" as="geometry" />
        </mxCell>
        <mxCell id="9QeZXsU7CtdaOQ2hk94F-246" value="" style="endArrow=none;html=1;rounded=0;entryX=0.5;entryY=1;entryDx=0;entryDy=0;exitX=0.5;exitY=0;exitDx=0;exitDy=0;" edge="1" parent="1" source="9QeZXsU7CtdaOQ2hk94F-244" target="9QeZXsU7CtdaOQ2hk94F-243">
          <mxGeometry width="50" height="50" relative="1" as="geometry">
            <mxPoint x="1306" y="280" as="sourcePoint" />
            <mxPoint x="1356" y="230" as="targetPoint" />
          </mxGeometry>
        </mxCell>
        <mxCell id="9QeZXsU7CtdaOQ2hk94F-247" value="" style="endArrow=none;html=1;rounded=0;entryX=0.5;entryY=1;entryDx=0;entryDy=0;exitX=0.5;exitY=0;exitDx=0;exitDy=0;" edge="1" parent="1" source="9QeZXsU7CtdaOQ2hk94F-245">
          <mxGeometry width="50" height="50" relative="1" as="geometry">
            <mxPoint x="1346" y="220" as="sourcePoint" />
            <mxPoint x="1330" y="100" as="targetPoint" />
          </mxGeometry>
        </mxCell>
        <mxCell id="9QeZXsU7CtdaOQ2hk94F-248" value="" style="endArrow=none;html=1;rounded=0;exitX=0.5;exitY=0;exitDx=0;exitDy=0;entryX=0.5;entryY=1;entryDx=0;entryDy=0;" edge="1" parent="1" source="9QeZXsU7CtdaOQ2hk94F-251" target="9QeZXsU7CtdaOQ2hk94F-249">
          <mxGeometry width="50" height="50" relative="1" as="geometry">
            <mxPoint x="1256" y="230" as="sourcePoint" />
            <mxPoint x="1246" y="50" as="targetPoint" />
          </mxGeometry>
        </mxCell>
        <mxCell id="9QeZXsU7CtdaOQ2hk94F-249" value="" style="ellipse;whiteSpace=wrap;html=1;aspect=fixed;fillColor=#1ba1e2;fontColor=#ffffff;strokeColor=default;" vertex="1" parent="1">
          <mxGeometry x="1231" y="-40" width="30" height="30" as="geometry" />
        </mxCell>
        <mxCell id="9QeZXsU7CtdaOQ2hk94F-250" value="" style="endArrow=none;html=1;rounded=0;exitX=0.5;exitY=0;exitDx=0;exitDy=0;" edge="1" parent="1" source="9QeZXsU7CtdaOQ2hk94F-243" target="9QeZXsU7CtdaOQ2hk94F-251">
          <mxGeometry width="50" height="50" relative="1" as="geometry">
            <mxPoint x="1246" y="80" as="sourcePoint" />
            <mxPoint x="1246" y="50" as="targetPoint" />
          </mxGeometry>
        </mxCell>
        <mxCell id="9QeZXsU7CtdaOQ2hk94F-251" value="UI" style="text;html=1;align=center;verticalAlign=middle;whiteSpace=wrap;rounded=0;" vertex="1" parent="1">
          <mxGeometry x="1236" y="30" width="20" height="20" as="geometry" />
        </mxCell>
        <mxCell id="9QeZXsU7CtdaOQ2hk94F-252" value="" style="whiteSpace=wrap;html=1;aspect=fixed;fillColor=#1ba1e2;fontColor=#ffffff;strokeColor=default;" vertex="1" parent="1">
          <mxGeometry x="1320" y="80" width="20" height="20" as="geometry" />
        </mxCell>
        <mxCell id="9QeZXsU7CtdaOQ2hk94F-253" value="" style="endArrow=none;html=1;rounded=0;exitX=0.5;exitY=0;exitDx=0;exitDy=0;entryX=0.5;entryY=1;entryDx=0;entryDy=0;" edge="1" parent="1" source="9QeZXsU7CtdaOQ2hk94F-256" target="9QeZXsU7CtdaOQ2hk94F-254">
          <mxGeometry width="50" height="50" relative="1" as="geometry">
            <mxPoint x="1340" y="230" as="sourcePoint" />
            <mxPoint x="1330" y="50" as="targetPoint" />
          </mxGeometry>
        </mxCell>
        <mxCell id="9QeZXsU7CtdaOQ2hk94F-254" value="" style="ellipse;whiteSpace=wrap;html=1;aspect=fixed;fillColor=#1ba1e2;fontColor=#ffffff;strokeColor=default;" vertex="1" parent="1">
          <mxGeometry x="1315" y="-40" width="30" height="30" as="geometry" />
        </mxCell>
        <mxCell id="9QeZXsU7CtdaOQ2hk94F-255" value="" style="endArrow=none;html=1;rounded=0;exitX=0.5;exitY=0;exitDx=0;exitDy=0;" edge="1" parent="1" source="9QeZXsU7CtdaOQ2hk94F-252" target="9QeZXsU7CtdaOQ2hk94F-256">
          <mxGeometry width="50" height="50" relative="1" as="geometry">
            <mxPoint x="1330" y="80" as="sourcePoint" />
            <mxPoint x="1330" y="50" as="targetPoint" />
          </mxGeometry>
        </mxCell>
        <mxCell id="9QeZXsU7CtdaOQ2hk94F-256" value="3D" style="text;html=1;align=center;verticalAlign=middle;whiteSpace=wrap;rounded=0;" vertex="1" parent="1">
          <mxGeometry x="1320" y="30" width="20" height="20" as="geometry" />
        </mxCell>
        <mxCell id="9QeZXsU7CtdaOQ2hk94F-257" value="&amp;lt;&amp;lt;Component&amp;gt;&amp;gt;&lt;div&gt;&amp;lt;&amp;lt;C4 Container&lt;span style=&quot;background-color: initial;&quot;&gt;&amp;gt;&amp;gt;&lt;/span&gt;&lt;/div&gt;&lt;div&gt;&lt;b&gt;Planning&lt;/b&gt;&lt;/div&gt;" style="html=1;dropTarget=0;whiteSpace=wrap;horizontal=1;verticalAlign=top;fillColor=#1ba1e2;fontColor=#ffffff;strokeColor=default;" vertex="1" parent="1">
          <mxGeometry x="1196" y="425" width="180" height="100" as="geometry" />
        </mxCell>
        <mxCell id="9QeZXsU7CtdaOQ2hk94F-258" value="" style="shape=module;jettyWidth=8;jettyHeight=4;" vertex="1" parent="9QeZXsU7CtdaOQ2hk94F-257">
          <mxGeometry x="1" width="20" height="20" relative="1" as="geometry">
            <mxPoint x="-27" y="7" as="offset" />
          </mxGeometry>
        </mxCell>
        <mxCell id="9QeZXsU7CtdaOQ2hk94F-259" value="" style="whiteSpace=wrap;html=1;aspect=fixed;fillColor=#1ba1e2;fontColor=#ffffff;strokeColor=default;" vertex="1" parent="1">
          <mxGeometry x="1276" y="290" width="20" height="20" as="geometry" />
        </mxCell>
        <mxCell id="9QeZXsU7CtdaOQ2hk94F-260" value="" style="whiteSpace=wrap;html=1;aspect=fixed;fillColor=#1ba1e2;fontColor=#ffffff;strokeColor=default;" vertex="1" parent="1">
          <mxGeometry x="1276" y="415" width="20" height="20" as="geometry" />
        </mxCell>
        <mxCell id="9QeZXsU7CtdaOQ2hk94F-261" value="" style="endArrow=none;html=1;rounded=0;entryX=0.5;entryY=1;entryDx=0;entryDy=0;exitX=0.5;exitY=0;exitDx=0;exitDy=0;" edge="1" parent="1" source="9QeZXsU7CtdaOQ2hk94F-260" target="9QeZXsU7CtdaOQ2hk94F-259">
          <mxGeometry width="50" height="50" relative="1" as="geometry">
            <mxPoint x="1306" y="520" as="sourcePoint" />
            <mxPoint x="1356" y="470" as="targetPoint" />
            <Array as="points" />
          </mxGeometry>
        </mxCell>
        <mxCell id="9QeZXsU7CtdaOQ2hk94F-262" value="&amp;lt;&amp;lt;Component&amp;gt;&amp;gt;&lt;div&gt;&amp;lt;&amp;lt;C4 Container&lt;span style=&quot;background-color: initial;&quot;&gt;&amp;gt;&amp;gt;&lt;/span&gt;&lt;/div&gt;&lt;div style=&quot;padding-right: 0px;&quot;&gt;&lt;b&gt;MastersData&lt;/b&gt;&lt;/div&gt;" style="html=1;dropTarget=0;whiteSpace=wrap;horizontal=1;verticalAlign=top;fillColor=#1ba1e2;fontColor=#ffffff;strokeColor=default;" vertex="1" parent="1">
          <mxGeometry x="1686" y="300" width="180" height="100" as="geometry" />
        </mxCell>
        <mxCell id="9QeZXsU7CtdaOQ2hk94F-263" value="" style="shape=module;jettyWidth=8;jettyHeight=4;" vertex="1" parent="9QeZXsU7CtdaOQ2hk94F-262">
          <mxGeometry x="1" width="20" height="20" relative="1" as="geometry">
            <mxPoint x="-27" y="7" as="offset" />
          </mxGeometry>
        </mxCell>
        <mxCell id="9QeZXsU7CtdaOQ2hk94F-264" value="" style="whiteSpace=wrap;html=1;aspect=fixed;fillColor=#1ba1e2;fontColor=#ffffff;strokeColor=default;" vertex="1" parent="1">
          <mxGeometry x="1366" y="465" width="20" height="20" as="geometry" />
        </mxCell>
        <mxCell id="9QeZXsU7CtdaOQ2hk94F-265" value="" style="whiteSpace=wrap;html=1;aspect=fixed;fillColor=#1ba1e2;fontColor=#ffffff;strokeColor=default;" vertex="1" parent="1">
          <mxGeometry x="1366" y="240" width="20" height="20" as="geometry" />
        </mxCell>
        <mxCell id="9QeZXsU7CtdaOQ2hk94F-266" value="" style="whiteSpace=wrap;html=1;aspect=fixed;fillColor=#1ba1e2;fontColor=#ffffff;strokeColor=default;" vertex="1" parent="1">
          <mxGeometry x="1676" y="320" width="20" height="20" as="geometry" />
        </mxCell>
        <mxCell id="9QeZXsU7CtdaOQ2hk94F-267" value="" style="whiteSpace=wrap;html=1;aspect=fixed;fillColor=#1ba1e2;fontColor=#ffffff;strokeColor=default;" vertex="1" parent="1">
          <mxGeometry x="1676" y="370" width="20" height="20" as="geometry" />
        </mxCell>
        <mxCell id="9QeZXsU7CtdaOQ2hk94F-268" value="" style="endArrow=none;html=1;rounded=0;entryX=0;entryY=0.5;entryDx=0;entryDy=0;exitX=1;exitY=0.5;exitDx=0;exitDy=0;" edge="1" parent="1" source="9QeZXsU7CtdaOQ2hk94F-264" target="9QeZXsU7CtdaOQ2hk94F-267">
          <mxGeometry width="50" height="50" relative="1" as="geometry">
            <mxPoint x="1296" y="425" as="sourcePoint" />
            <mxPoint x="1296" y="320" as="targetPoint" />
            <Array as="points" />
          </mxGeometry>
        </mxCell>
        <mxCell id="9QeZXsU7CtdaOQ2hk94F-269" value="" style="endArrow=none;html=1;rounded=0;entryX=1;entryY=0.5;entryDx=0;entryDy=0;exitX=0;exitY=0.5;exitDx=0;exitDy=0;" edge="1" parent="1" source="9QeZXsU7CtdaOQ2hk94F-266" target="9QeZXsU7CtdaOQ2hk94F-265">
          <mxGeometry width="50" height="50" relative="1" as="geometry">
            <mxPoint x="1296" y="425" as="sourcePoint" />
            <mxPoint x="1296" y="320" as="targetPoint" />
            <Array as="points" />
          </mxGeometry>
        </mxCell>
        <mxCell id="9QeZXsU7CtdaOQ2hk94F-270" value="" style="whiteSpace=wrap;html=1;aspect=fixed;fillColor=#1ba1e2;fontColor=#ffffff;strokeColor=default;" vertex="1" parent="1">
          <mxGeometry x="1814" y="80" width="20" height="20" as="geometry" />
        </mxCell>
        <mxCell id="9QeZXsU7CtdaOQ2hk94F-271" value="" style="whiteSpace=wrap;html=1;aspect=fixed;fillColor=#1ba1e2;fontColor=#ffffff;strokeColor=default;" vertex="1" parent="1">
          <mxGeometry x="1813" y="290" width="20" height="20" as="geometry" />
        </mxCell>
        <mxCell id="9QeZXsU7CtdaOQ2hk94F-272" value="" style="endArrow=none;html=1;rounded=0;entryX=0.5;entryY=1;entryDx=0;entryDy=0;exitX=0.5;exitY=0;exitDx=0;exitDy=0;" edge="1" parent="1" source="9QeZXsU7CtdaOQ2hk94F-271" target="9QeZXsU7CtdaOQ2hk94F-270">
          <mxGeometry width="50" height="50" relative="1" as="geometry">
            <mxPoint x="1847" y="270" as="sourcePoint" />
            <mxPoint x="1897" y="220" as="targetPoint" />
          </mxGeometry>
        </mxCell>
        <mxCell id="9QeZXsU7CtdaOQ2hk94F-273" value="" style="endArrow=none;html=1;rounded=0;exitX=0.5;exitY=0;exitDx=0;exitDy=0;entryX=0.5;entryY=1;entryDx=0;entryDy=0;" edge="1" parent="1" source="9QeZXsU7CtdaOQ2hk94F-276" target="9QeZXsU7CtdaOQ2hk94F-274">
          <mxGeometry width="50" height="50" relative="1" as="geometry">
            <mxPoint x="1797" y="220" as="sourcePoint" />
            <mxPoint x="1787" y="40" as="targetPoint" />
          </mxGeometry>
        </mxCell>
        <mxCell id="9QeZXsU7CtdaOQ2hk94F-274" value="" style="ellipse;whiteSpace=wrap;html=1;aspect=fixed;fillColor=#1ba1e2;fontColor=#ffffff;strokeColor=default;" vertex="1" parent="1">
          <mxGeometry x="1808" y="-50" width="30" height="30" as="geometry" />
        </mxCell>
        <mxCell id="9QeZXsU7CtdaOQ2hk94F-275" value="" style="endArrow=none;html=1;rounded=0;exitX=0.5;exitY=0;exitDx=0;exitDy=0;" edge="1" parent="1" source="9QeZXsU7CtdaOQ2hk94F-270" target="9QeZXsU7CtdaOQ2hk94F-276">
          <mxGeometry width="50" height="50" relative="1" as="geometry">
            <mxPoint x="1787" y="70" as="sourcePoint" />
            <mxPoint x="1787" y="40" as="targetPoint" />
          </mxGeometry>
        </mxCell>
        <mxCell id="9QeZXsU7CtdaOQ2hk94F-276" value="Web API" style="text;html=1;align=center;verticalAlign=middle;whiteSpace=wrap;rounded=0;" vertex="1" parent="1">
          <mxGeometry x="1796" y="20" width="54" height="20" as="geometry" />
        </mxCell>
        <mxCell id="9QeZXsU7CtdaOQ2hk94F-277" value="" style="whiteSpace=wrap;html=1;aspect=fixed;fillColor=#1ba1e2;fontColor=#ffffff;strokeColor=default;" vertex="1" parent="1">
          <mxGeometry x="1722" y="80" width="20" height="20" as="geometry" />
        </mxCell>
        <mxCell id="9QeZXsU7CtdaOQ2hk94F-278" value="" style="whiteSpace=wrap;html=1;aspect=fixed;fillColor=#1ba1e2;fontColor=#ffffff;strokeColor=default;" vertex="1" parent="1">
          <mxGeometry x="1721" y="290" width="20" height="20" as="geometry" />
        </mxCell>
        <mxCell id="9QeZXsU7CtdaOQ2hk94F-279" value="" style="endArrow=none;html=1;rounded=0;entryX=0.5;entryY=1;entryDx=0;entryDy=0;exitX=0.5;exitY=0;exitDx=0;exitDy=0;" edge="1" parent="1" source="9QeZXsU7CtdaOQ2hk94F-278" target="9QeZXsU7CtdaOQ2hk94F-277">
          <mxGeometry width="50" height="50" relative="1" as="geometry">
            <mxPoint x="1755" y="270" as="sourcePoint" />
            <mxPoint x="1805" y="220" as="targetPoint" />
          </mxGeometry>
        </mxCell>
        <mxCell id="9QeZXsU7CtdaOQ2hk94F-280" value="" style="endArrow=none;html=1;rounded=0;exitX=0.5;exitY=0;exitDx=0;exitDy=0;" edge="1" parent="1" source="9QeZXsU7CtdaOQ2hk94F-277">
          <mxGeometry width="50" height="50" relative="1" as="geometry">
            <mxPoint x="1695" y="70" as="sourcePoint" />
            <mxPoint x="1731" y="40" as="targetPoint" />
          </mxGeometry>
        </mxCell>
        <mxCell id="9QeZXsU7CtdaOQ2hk94F-281" value="Google API" style="text;html=1;align=center;verticalAlign=middle;whiteSpace=wrap;rounded=0;" vertex="1" parent="1">
          <mxGeometry x="1695.5" y="20" width="71" height="20" as="geometry" />
        </mxCell>
        <mxCell id="9QeZXsU7CtdaOQ2hk94F-282" value="" style="rounded=0;orthogonalLoop=1;jettySize=auto;html=1;endArrow=halfCircle;endFill=0;endSize=6;strokeWidth=1;sketch=0;fontSize=12;curved=1;" edge="1" parent="1" source="9QeZXsU7CtdaOQ2hk94F-281">
          <mxGeometry relative="1" as="geometry">
            <mxPoint x="1671" y="275" as="sourcePoint" />
            <mxPoint x="1731" y="-40" as="targetPoint" />
          </mxGeometry>
        </mxCell>
        <mxCell id="9QeZXsU7CtdaOQ2hk94F-283" value="" style="ellipse;whiteSpace=wrap;html=1;align=center;aspect=fixed;fillColor=none;strokeColor=none;resizable=0;perimeter=centerPerimeter;rotatable=0;allowArrows=0;points=[];outlineConnect=1;" vertex="1" parent="1">
          <mxGeometry x="1646" y="270" width="10" height="10" as="geometry" />
        </mxCell>
        <mxCell id="9QeZXsU7CtdaOQ2hk94F-284" value="manifests" style="endArrow=open;endSize=12;dashed=1;html=1;rounded=0;entryX=1;entryY=0.5;entryDx=0;entryDy=0;exitX=0;exitY=0;exitDx=0;exitDy=0;" edge="1" parent="1" source="9QeZXsU7CtdaOQ2hk94F-262">
          <mxGeometry x="0.6253" y="1" width="160" relative="1" as="geometry">
            <mxPoint x="1686" y="359.89999999999986" as="sourcePoint" />
            <mxPoint x="903.6" y="150" as="targetPoint" />
            <mxPoint as="offset" />
          </mxGeometry>
        </mxCell>
        <mxCell id="9QeZXsU7CtdaOQ2hk94F-285" value="manifests" style="endArrow=open;endSize=12;dashed=1;html=1;rounded=0;entryX=1;entryY=0.5;entryDx=0;entryDy=0;exitX=0;exitY=1;exitDx=0;exitDy=0;" edge="1" parent="1" source="9QeZXsU7CtdaOQ2hk94F-262" target="9QeZXsU7CtdaOQ2hk94F-196">
          <mxGeometry x="0.8239" y="1" width="160" relative="1" as="geometry">
            <mxPoint x="1680" y="360" as="sourcePoint" />
            <mxPoint x="913.6" y="160" as="targetPoint" />
            <mxPoint as="offset" />
          </mxGeometry>
        </mxCell>
        <mxCell id="9QeZXsU7CtdaOQ2hk94F-286" value="manifests" style="endArrow=open;endSize=12;dashed=1;html=1;rounded=0;entryX=1;entryY=0;entryDx=0;entryDy=0;exitX=0;exitY=0.5;exitDx=0;exitDy=0;" edge="1" parent="1" source="9QeZXsU7CtdaOQ2hk94F-262" target="9QeZXsU7CtdaOQ2hk94F-194">
          <mxGeometry x="0.4491" y="-2" width="160" relative="1" as="geometry">
            <mxPoint x="1696" y="310" as="sourcePoint" />
            <mxPoint x="913.6" y="160" as="targetPoint" />
            <mxPoint x="-1" as="offset" />
          </mxGeometry>
        </mxCell>
        <mxCell id="9QeZXsU7CtdaOQ2hk94F-287" value="manifests" style="endArrow=open;endSize=12;dashed=1;html=1;rounded=0;entryX=1;entryY=0.5;entryDx=0;entryDy=0;exitX=0;exitY=0.25;exitDx=0;exitDy=0;" edge="1" parent="1" source="9QeZXsU7CtdaOQ2hk94F-241" target="9QeZXsU7CtdaOQ2hk94F-156">
          <mxGeometry x="-0.6113" y="-1" width="160" relative="1" as="geometry">
            <mxPoint x="1696" y="310" as="sourcePoint" />
            <mxPoint x="913.6" y="160" as="targetPoint" />
            <mxPoint x="-1" as="offset" />
          </mxGeometry>
        </mxCell>
        <mxCell id="9QeZXsU7CtdaOQ2hk94F-288" value="manifests" style="endArrow=open;endSize=12;dashed=1;html=1;rounded=0;entryX=1;entryY=0;entryDx=0;entryDy=0;exitX=0;exitY=0.75;exitDx=0;exitDy=0;" edge="1" parent="1" source="9QeZXsU7CtdaOQ2hk94F-241" target="9QeZXsU7CtdaOQ2hk94F-161">
          <mxGeometry x="-0.6113" y="-1" width="160" relative="1" as="geometry">
            <mxPoint x="1206" y="235" as="sourcePoint" />
            <mxPoint x="300" y="215" as="targetPoint" />
            <mxPoint x="-1" as="offset" />
          </mxGeometry>
        </mxCell>
        <mxCell id="9QeZXsU7CtdaOQ2hk94F-289" value="manifests" style="endArrow=open;endSize=12;dashed=1;html=1;rounded=0;entryX=1;entryY=0.5;entryDx=0;entryDy=0;exitX=0.022;exitY=0.65;exitDx=0;exitDy=0;exitPerimeter=0;" edge="1" parent="1" source="9QeZXsU7CtdaOQ2hk94F-257" target="9QeZXsU7CtdaOQ2hk94F-200">
          <mxGeometry x="-0.3271" y="-3" width="160" relative="1" as="geometry">
            <mxPoint x="1696" y="360" as="sourcePoint" />
            <mxPoint x="749" y="390" as="targetPoint" />
            <mxPoint x="1" as="offset" />
          </mxGeometry>
        </mxCell>
      </root>
    </mxGraphModel>
  </diagram>
</mxfile>
